<svg fill="none" height="226.568606" viewBox="0 0 1500 770" width="441.367415" xmlns="http://www.w3.org/2000/svg"><path d="m138.847 303.389c1.455-2.001 2.762-4.04 3.994-6.115 8.901-14.892 12.416-32.354 9.966-49.499-2.451-17.145-10.721-32.946-23.444-44.791s-29.136-19.025-46.5264-20.353c-17.3902-1.327-34.716 3.277-49.113 13.052-7.4053 4.926-13.8759 11.112-19.1133 18.272-11.94515 16.357-16.85652 36.755-13.653635 56.707s14.257635 37.824 30.732435 49.684c16.4747 11.859 37.0199 16.735 57.1159 13.555 20.096-3.179 38.096-14.155 50.042-30.512z" fill="#00b189"/><g fill="#00538b"><path d="m1445.98 232.709c-42.78-29.65-78.77-37.878-121.21-53.482-36.7-13.491-35.35-35.395-23.48-46.885 20.6-20.014 59.73-12.046 75.96-3.929 11.63 5.931 21.94 14.124 30.32 24.091 1.22 1.686 2.81 3.07 4.66 4.046 1.84.976 3.89 1.517 5.98 1.581 2.09.065 4.16-.349 6.07-1.209 1.9-.86 3.58-2.143 4.9-3.751 4.71-5.411 60.44-66.1204 66.64-72.866 1.38-1.3789 2.46-3.0222 3.17-4.8297.72-1.8075 1.06-3.7413 1-5.6834s-.51-3.8519-1.34-5.6128c-.83-1.761-2.01-3.3361-3.47-4.6295-5.78-5.7078-28.59-27.3527-72.08-44.1053-35.66-14.21023-74.48-18.72642-112.48-13.08338-32.25 4.52172-96.72 16.93788-133.35 82.61408-36.62 65.676-9.4 143.694 22.18 170.491 37.33 31.689 64.88 38.805 106.39 51.889 41.51 13.083 66.9 31.726 52.45 59.931-13.29 25.944-60.03 20.496-87.43 5.374-14.44-7.464-27.26-17.693-37.7-30.095-1.25-1.638-2.84-2.979-4.68-3.924-1.83-.945-3.86-1.47-5.92-1.538-2.07-.067-4.12.325-6.01 1.148-1.9.823-3.58 2.057-4.93 3.61-6.31 6.708-62.75 66.121-68.73 72.236-1.35 1.352-2.42 2.961-3.14 4.732s-1.07 3.667-1.04 5.576c.04 1.909.46 3.791 1.24 5.535s1.91 3.314 3.32 4.616c9.59 9.525 29.52 32.875 77.08 51.889 38.64 15.381 81.38 20.199 129.02 15.344 57.04-5.856 114.16-46.07 132.3-88.952 33.86-80.131 7.13-150.477-35.69-180.128z"/><path d="m932.909 5.54885h-163.695c-4.977 0-7.466 2.66856-7.466 8.00565v474.8175c-.159 1.01-.076 2.043.243 3.014.319.972.864 1.855 1.592 2.577.728.723 1.617 1.265 2.596 1.581.978.317 2.019.399 3.035.241h111.992c1.017.158 2.057.076 3.036-.241.979-.316 1.868-.858 2.596-1.581.728-.722 1.273-1.605 1.592-2.577.319-.971.402-2.004.242-3.014v-167.192h41.773c27.214 0 183.895-1.297 183.895-159.15 0-157.85249-151.678-156.48115-181.431-156.48115zm-10.751 207.96215h-33.598v-98.292h35.017c23.704 0 68.016 0 68.016 47.515s-47.597 50.777-69.435 50.777z"/><path d="m362.794 80.2685 8.698-22.238c-248.995-70.7539-398.8031-12.861-337.7675 137.6535 7.4963-5.13 15.8516-8.895 24.6756-11.119-62.26751-130.2408 71.0399-186.35472 304.3939-104.2965z"/><path d="m910.547 427.921v27.761c32.069 30.357 61.525 63.323 88.064 98.551 127.259 170.491 57.419 230.719-204.759 144.547-140.662-46.218-296.667-127.572-430.759-219.378l26.58-76.758h161.007l33 87.618c.249 1.568 1.081 2.986 2.332 3.975 1.251.988 2.83 1.474 4.425 1.362h119.234c1.095.155 2.212.054 3.261-.293 1.05-.348 2.003-.933 2.785-1.71.783-.776 1.372-1.723 1.722-2.765s.451-2.15.296-3.238c-.162-1.419-.606-2.792-1.307-4.04l-183.928-472.9641c-.382-1.51231-1.262-2.85475-2.499-3.81476-1.238-.96001-2.762-1.48272-4.333-1.48533h-104.526c-1.661-.06804-3.297.41638-4.65 1.37647-1.352.96009-2.343 2.34091-2.816 3.92362l-153.839 392.4261c-41.293-32.701-80.375-68.061-116.995-105.853-1.232 2.076-2.538 4.114-3.994 6.116-5.686 7.769-12.806 14.397-20.98 19.532 38.62 43.685 80.728 84.204 125.916 121.16 21.055 17.444 43.043 34.629 65.964 51.555 143.35 105.741 318.318 197.177 477.832 242.431 277.26 78.722 353 7.783 230.03-182.722-26.988-41.696-63.46-84.727-107.063-127.313zm-439.344-263.482 44.461 129.721h-89.594z"/></g></svg>